<svg viewBox="0 0 950.5 400" xmlns="http://www.w3.org/2000/svg"><g><g><g><g><g><line x1="50" y1="364.9466435999106" x2="45" y2="364.9466435999106" style="visibility: inherit;" fill="rgb(0, 0, 0)" stroke="rgb(204, 204, 204)" stroke-width="1px"></line><line x1="50" y1="331.54602989307375" x2="45" y2="331.54602989307375" style="visibility: inherit;" fill="rgb(0, 0, 0)" stroke="rgb(204, 204, 204)" stroke-width="1px"></line><line x1="50" y1="298.1454161862369" x2="45" y2="298.1454161862369" style="visibility: inherit;" fill="rgb(0, 0, 0)" stroke="rgb(204, 204, 204)" stroke-width="1px"></line><line x1="50" y1="264.74480247940005" x2="45" y2="264.74480247940005" style="visibility: inherit;" fill="rgb(0, 0, 0)" stroke="rgb(204, 204, 204)" stroke-width="1px"></line><line x1="50" y1="231.3441887725632" x2="45" y2="231.3441887725632" style="visibility: inherit;" fill="rgb(0, 0, 0)" stroke="rgb(204, 204, 204)" stroke-width="1px"></line><line x1="50" y1="197.94357506572632" x2="45" y2="197.94357506572632" style="visibility: inherit;" fill="rgb(0, 0, 0)" stroke="rgb(204, 204, 204)" stroke-width="1px"></line><line x1="50" y1="164.54296135888953" x2="45" y2="164.54296135888953" style="visibility: inherit;" fill="rgb(0, 0, 0)" stroke="rgb(204, 204, 204)" stroke-width="1px"></line><line x1="50" y1="131.14234765205262" x2="45" y2="131.14234765205262" style="visibility: inherit;" fill="rgb(0, 0, 0)" stroke="rgb(204, 204, 204)" stroke-width="1px"></line><line x1="50" y1="97.7417339452158" x2="45" y2="97.7417339452158" style="visibility: inherit;" fill="rgb(0, 0, 0)" stroke="rgb(204, 204, 204)" stroke-width="1px"></line><line x1="50" y1="64.34112023837889" x2="45" y2="64.34112023837889" style="visibility: inherit;" fill="rgb(0, 0, 0)" stroke="rgb(204, 204, 204)" stroke-width="1px"></line><line x1="50" y1="30.940506531542155" x2="45" y2="30.940506531542155" style="visibility: inherit;" fill="rgb(0, 0, 0)" stroke="rgb(204, 204, 204)" stroke-width="1px"></line></g><g transform="translate(40, 0)"><text x="0" y="364.9466435999106" dx="0em" dy="0.3em" style="text-anchor: end; visibility: inherit; font-family: &quot;Helvetica Neue&quot;, sans-serif; font-size: 12px; font-weight: 200;" fill="rgb(50, 49, 63)" stroke="none" stroke-width="1px">-0.6</text><text x="0" y="331.54602989307375" dx="0em" dy="0.3em" style="text-anchor: end; visibility: inherit; font-family: &quot;Helvetica Neue&quot;, sans-serif; font-size: 12px; font-weight: 200;" fill="rgb(50, 49, 63)" stroke="none" stroke-width="1px">-0.4</text><text x="0" y="298.1454161862369" dx="0em" dy="0.3em" style="text-anchor: end; visibility: inherit; font-family: &quot;Helvetica Neue&quot;, sans-serif; font-size: 12px; font-weight: 200;" fill="rgb(50, 49, 63)" stroke="none" stroke-width="1px">-0.2</text><text x="0" y="264.74480247940005" dx="0em" dy="0.3em" style="text-anchor: end; visibility: inherit; font-family: &quot;Helvetica Neue&quot;, sans-serif; font-size: 12px; font-weight: 200;" fill="rgb(50, 49, 63)" stroke="none" stroke-width="1px">0</text><text x="0" y="231.3441887725632" dx="0em" dy="0.3em" style="text-anchor: end; visibility: inherit; font-family: &quot;Helvetica Neue&quot;, sans-serif; font-size: 12px; font-weight: 200;" fill="rgb(50, 49, 63)" stroke="none" stroke-width="1px">0.2</text><text x="0" y="197.94357506572632" dx="0em" dy="0.3em" style="text-anchor: end; visibility: inherit; font-family: &quot;Helvetica Neue&quot;, sans-serif; font-size: 12px; font-weight: 200;" fill="rgb(50, 49, 63)" stroke="none" stroke-width="1px">0.4</text><text x="0" y="164.54296135888953" dx="0em" dy="0.3em" style="text-anchor: end; visibility: inherit; font-family: &quot;Helvetica Neue&quot;, sans-serif; font-size: 12px; font-weight: 200;" fill="rgb(50, 49, 63)" stroke="none" stroke-width="1px">0.6</text><text x="0" y="131.14234765205262" dx="0em" dy="0.3em" style="text-anchor: end; visibility: inherit; font-family: &quot;Helvetica Neue&quot;, sans-serif; font-size: 12px; font-weight: 200;" fill="rgb(50, 49, 63)" stroke="none" stroke-width="1px">0.8</text><text x="0" y="97.7417339452158" dx="0em" dy="0.3em" style="text-anchor: end; visibility: inherit; font-family: &quot;Helvetica Neue&quot;, sans-serif; font-size: 12px; font-weight: 200;" fill="rgb(50, 49, 63)" stroke="none" stroke-width="1px">1</text><text x="0" y="64.34112023837889" dx="0em" dy="0.3em" style="text-anchor: end; visibility: inherit; font-family: &quot;Helvetica Neue&quot;, sans-serif; font-size: 12px; font-weight: 200;" fill="rgb(50, 49, 63)" stroke="none" stroke-width="1px">1.2</text><text x="0" y="30.940506531542155" dx="0em" dy="0.3em" style="text-anchor: end; visibility: inherit; font-family: &quot;Helvetica Neue&quot;, sans-serif; font-size: 12px; font-weight: 200;" fill="rgb(50, 49, 63)" stroke="none" stroke-width="1px">1.4</text></g><line x1="50" y1="0" x2="50" y2="378" fill="rgb(0, 0, 0)" stroke="rgb(204, 204, 204)" stroke-width="1px"></line></g></g><g transform="translate(50, 0)" clip-path="url(#clip_0)"><clipPath id="clip_0"><rect width="900" height="378"></rect></clipPath><g><g><g><line x1="17.225914554716997" y1="0" x2="17.225914554716997" y2="378" fill="rgb(0, 0, 0)" stroke="rgb(60, 60, 60)" stroke-width="1px" opacity="0.25"></line><line x1="132.15956662969813" y1="0" x2="132.15956662969813" y2="378" fill="rgb(0, 0, 0)" stroke="rgb(60, 60, 60)" stroke-width="1px" opacity="0.25"></line><line x1="247.09321870467923" y1="0" x2="247.09321870467923" y2="378" fill="rgb(0, 0, 0)" stroke="rgb(60, 60, 60)" stroke-width="1px" opacity="0.25"></line><line x1="362.0268707796604" y1="0" x2="362.0268707796604" y2="378" fill="rgb(0, 0, 0)" stroke="rgb(60, 60, 60)" stroke-width="1px" opacity="0.25"></line><line x1="476.96052285464145" y1="0" x2="476.96052285464145" y2="378" fill="rgb(0, 0, 0)" stroke="rgb(60, 60, 60)" stroke-width="1px" opacity="0.25"></line><line x1="591.8941749296226" y1="0" x2="591.8941749296226" y2="378" fill="rgb(0, 0, 0)" stroke="rgb(60, 60, 60)" stroke-width="1px" opacity="0.25"></line><line x1="706.8278270046037" y1="0" x2="706.8278270046037" y2="378" fill="rgb(0, 0, 0)" stroke="rgb(60, 60, 60)" stroke-width="1px" opacity="0.25"></line><line x1="821.7614790795849" y1="0" x2="821.7614790795849" y2="378" fill="rgb(0, 0, 0)" stroke="rgb(60, 60, 60)" stroke-width="1px" opacity="0.25"></line></g><g><line x1="0" y1="364.9466435999106" x2="900.5" y2="364.9466435999106" fill="rgb(0, 0, 0)" stroke="rgb(60, 60, 60)" stroke-width="1px" opacity="0.25"></line><line x1="0" y1="331.54602989307375" x2="900.5" y2="331.54602989307375" fill="rgb(0, 0, 0)" stroke="rgb(60, 60, 60)" stroke-width="1px" opacity="0.25"></line><line x1="0" y1="298.1454161862369" x2="900.5" y2="298.1454161862369" fill="rgb(0, 0, 0)" stroke="rgb(60, 60, 60)" stroke-width="1px" opacity="0.25"></line><line x1="0" y1="264.74480247940005" x2="900.5" y2="264.74480247940005" fill="rgb(0, 0, 0)" stroke="rgb(60, 60, 60)" stroke-width="1px" opacity="0.25"></line><line x1="0" y1="231.3441887725632" x2="900.5" y2="231.3441887725632" fill="rgb(0, 0, 0)" stroke="rgb(60, 60, 60)" stroke-width="1px" opacity="0.25"></line><line x1="0" y1="197.94357506572632" x2="900.5" y2="197.94357506572632" fill="rgb(0, 0, 0)" stroke="rgb(60, 60, 60)" stroke-width="1px" opacity="0.25"></line><line x1="0" y1="164.54296135888953" x2="900.5" y2="164.54296135888953" fill="rgb(0, 0, 0)" stroke="rgb(60, 60, 60)" stroke-width="1px" opacity="0.25"></line><line x1="0" y1="131.14234765205262" x2="900.5" y2="131.14234765205262" fill="rgb(0, 0, 0)" stroke="rgb(60, 60, 60)" stroke-width="1px" opacity="0.25"></line><line x1="0" y1="97.7417339452158" x2="900.5" y2="97.7417339452158" fill="rgb(0, 0, 0)" stroke="rgb(60, 60, 60)" stroke-width="1px" opacity="0.25"></line><line x1="0" y1="64.34112023837889" x2="900.5" y2="64.34112023837889" fill="rgb(0, 0, 0)" stroke="rgb(60, 60, 60)" stroke-width="1px" opacity="0.25"></line><line x1="0" y1="30.940506531542155" x2="900.5" y2="30.940506531542155" fill="rgb(0, 0, 0)" stroke="rgb(60, 60, 60)" stroke-width="1px" opacity="0.25"></line></g></g></g><g><g><line x1="0" y1="264.74480247940005" x2="900.5" y2="264.74480247940005" fill="rgb(0, 0, 0)" stroke="rgb(153, 153, 153)" stroke-width="1.5px"></line></g></g><g><g><line x1="132.15956662969813" y1="0" x2="132.15956662969813" y2="378" fill="rgb(0, 0, 0)" stroke="rgb(153, 153, 153)" stroke-width="1.5px"></line></g></g><g><g><g><g><g><path stroke="rgb(255, 112, 67)" stroke-width="2px" d="M132.15956662969813,248.62716204939605L132.3235879656841,246.87830659708814L132.48366883333472,190.9301435122589L132.6431373600279,155.95749928301325L132.80082585178454,136.37213374634996L132.9502788684798,124.64814728209168L133.1109328080901,117.36287185932991L133.2681519874341,112.67189445129122L133.43049417468927,109.61518585435579L133.59186740740543,107.41051786738643L133.73783681703233,105.84839795179488L133.8988018756536,104.68884736314504L134.06218868210203,103.83182702171399L134.22265393896683,103.06723045411474L134.38465451786723,102.46373194688931L134.53913827629188,101.98221140343321L134.69509031212178,101.61496584091708L134.85496286252797,101.3005580460437L135.01169724534233,101.01587828618801L135.1731640212809,100.79607740940497L186.5186553560123,124.39596623652662L186.5822543712782,126.16266478737836L186.6459929032273,125.32327316576968L186.70955025504438,123.89444281001389L186.77289705479598,122.45486085071968L186.83611231936803,121.25376728491648L186.8994045256349,120.26590673205402L186.96280767480206,119.47724132467965L187.02651587703744,118.83481366873798L187.08999852198065,118.22891238209809L187.15331690757938,117.71729759488153L187.21707267957632,117.3212589479536L187.28047965986522,116.93555770991594L187.34992959617213,116.66294268784816L187.41604422174782,116.41587421436884L187.48377797514712,116.21085063023065L187.55480792990988,115.98095668897344L187.61869459856612,115.83967970949902L187.68228148194652,115.70036075136659L187.74637982007866,115.5733453552541L187.81018603517845,115.43479123164974L187.87388753295082,115.33718541098119L187.9387785940221,115.2919803994235L188.0023234946935,115.2370215834494L188.06647147777815,115.15840050429847L188.13041226102894,115.0800554138134L188.19449000688175,115.03749985924094L188.25840604747128,114.96409100540853L188.322130531974,114.93785965529867L188.38594265338648,114.89539990195027L188.45002167627987,114.86547255022617L188.51427693077312,114.84529038933408L188.57802871201827,114.82315924594411L188.64204579844358,114.79540721334007L188.7060379825776,114.76316778144707L188.7699666339429,114.75273110340544L188.8339064594132,114.72531850043731L188.8981406427369,114.71888880384779L188.96233172594108,114.69276552399037L189.0270029764028,114.66818457498181L189.0911806506809,114.65121025571898L189.155131011736,114.6399107984007L189.22035011260596,114.6342459897703L189.28436320827947,114.63641347006802L189.3485370514358,114.61433363058245L189.41262980251543,114.60887784222467L189.476515034501,114.59447163825814L189.54050482418396,114.59807551259064L189.60468329661242,114.59355660595367L189.6685699652687,114.5830531466379L213.39439990665153,138.15758336062274L214.5443018371175,137.59044531613978L215.75888906549162,134.57699709374367L217.08529061469733,131.44292673301956L218.21907262156958,128.81096943404887L219.35509615391746,126.72299022986661L220.48069903514386,125.0894362334935L221.5335343882702,123.80981107575036L222.64755068032687,122.76815328037048L223.7575109318758,121.95945261578379L224.82797311647866,121.27494199900576L225.9240383683819,120.69389608571652L227.0526897050995,120.26955720761106L228.17035849284107,119.87578678052313L229.31647735022304,119.5070346736187L230.53151058501916,119.22009392619879L231.7528517617534,118.95997453256592L232.94807857606548,118.73042527943886L235.00178394709334,125.85732825320036L236.12861853395788,123.76174544443793L237.28965721604976,121.1973191781795L238.34243254826896,118.93052866355242L239.68512227116457,117.22420093952854L241.81124957118595,135.697455442133L243.23436922528344,134.85293777361272L244.49799385409574,132.22194602568612L245.66250496915094,129.67807631146138L246.82998121279965,127.60287023403464L247.98627600840217,125.88568455291582L249.088202238041,124.53027430680334L250.19787164359815,123.41196903374069L251.38376600499183,122.56284624802018L252.61092011080984,121.84183874351294L253.8874653573063,121.27228890877825L255.0315837306218,120.76689671428795L256.27699249299076,120.370140086937L257.55650717809266,120.01072899082658L258.77421549364084,119.70601650388232L260.0125500897245,119.41742010434666L261.2275183550813,119.21086009010628L262.31085805724877,119.02346432980596L263.3969350958965,118.8653771023944L264.5801982748081,118.70595014843082L265.87155208385406,118.60027611086139L267.1012878868318,118.46450495546947L268.25074971718834,118.36299856852492L282.97072491960256,139.31776425077987L283.02414687923743,138.4257209504587L283.07739915210533,134.69182963499543L283.13038101163073,131.21344438194842L283.18372746624135,128.3270266081586L283.2367420499316,126.01845986761322L283.2903574812141,124.15457655738669L283.3433771730666,122.75790838913807L283.39670239687763,121.6549277868856L283.4536494673996,120.76601738012857L283.50722387375345,120.09795553556506L283.5606170999753,119.54347400036886L283.6137341661719,119.0849764598359L283.6668086111393,118.69075054733753L283.71999926679933,118.37961853546705L283.7732287125669,118.08939617083325L283.82662784510137,117.86405059700922L283.879928166621,117.59523853630265L283.9331938484151,117.40723433825968L283.9864007863425,117.26882176024861L326.2056523630603,169.72982951886198L326.335114746168,201.16331027053747L326.4444155318808,220.1096470262358L326.5560303151221,231.38139991042746L327.75172548406636,237.33895416103078L328.91835185721,240.8937615507578L327.40856552498497,215.09407605003875L328.1718718344294,196.68346980329056L328.94252591610297,185.3936313181268L337.81540992223427,210.71056578505844L338.0865321819063,218.19130928566364L338.16558402669375,180.25541920867693L338.2396054490119,152.84628055984604L338.3117362127535,135.2952526840839L338.3839835064478,124.02564320757958L338.4561985548675,116.75619154430098L338.5281846937635,111.93387394072636L338.6001420992465,108.67980837838849L338.6719465791201,106.51567195971018L338.7437574441968,104.91139835703677L338.8152792192124,103.70185161283564L338.8869614224507,102.76834444185494L338.95865160719256,102.10238761696536L339.03029102957146,101.5597205016644L339.10206933011335,101.14002954395642L339.1789227495446,100.77060459492003L339.25078038623246,100.46074383552116L339.3245184651722,100.17289679605972L339.4033271933595,99.9747059264273L339.47929306958866,99.77346254989436L339.554760580732,99.59587031517657L339.63180076734795,99.42659183032441L339.7102032370011,99.3250247394131L339.7887848115954,99.21507817136313L339.86845841551457,99.1295085014645L339.9421055053131,99.0428851798672L340.01467253804236,98.99091118690882L340.09754113785897,98.932281185107L340.17362785405294,98.88142339343636L340.25777333481824,98.83914688466018L340.33543687686654,98.80201914562059L340.41033275272093,98.76602169001512L340.48192604200887,98.73854229976502L340.5534111021079,98.71813670879925L340.62493782565576,98.68825060355897L340.696549153142,98.66247904512005L340.76809391488797,98.63721325469072L340.8395433774808,98.62205378043308L340.9108006454666,98.60707717899157L340.9824493263897,98.58632938435284L341.05415547413884,98.57584366764087L341.1256006267197,98.55779040383982L341.1970684467709,98.54107752867225L341.2687166488038,98.52712786509267L341.3401745717905,98.51484011012923L341.41170975573215,98.50746745715117L341.4832505267264,98.49519998840611L341.5548434967543,98.4858805287513L341.6262415584638,98.48225181302962L341.6977548730856,98.47811162352536L537.9991804685137,133.39832762291053L546.9938218334216,137.33406999935227L551.5611801302939,136.0495659468122L553.2266166378819,133.99494030713575L554.8087932923462,132.01337329858026L556.3614586564491,130.34614771884222L556.8166406150863,128.89300964235014L556.8532830596686,127.78590604763156L556.8862377303199,126.82369601629222L556.9200183269654,126.16795909955076L556.9558488929998,125.57849965881977L556.9890444454304,125.11701249367215L557.0248418084096,124.68918727892162L557.0590465421575,124.33056156624923L557.0939202855382,124.0663838068059L557.1288682569027,123.82358931797856L557.1648480770548,123.6367462064737L557.1988764195725,123.45015536177547L557.2423674731477,123.3107552489297L557.275074876817,123.1604700987217L559.4166743215986,148.21362362491527" style="fill: none;" fill="none"></path></g></g></g></g><g opacity="0.2"><g><g><g><path stroke="rgb(255, 112, 67)" stroke-width="2px" d="M132.15956662969813,248.62716204939605L132.3235879656841,245.8289933257034L132.48366883333472,137.2199069508228L132.6431373600279,114.82966966942047L132.80082585178454,110.80148050168236L132.9502788684798,108.42965336689537L133.1109328080901,106.94481144037388L133.2681519874341,105.83240435698764L133.43049417468927,105.10713440895398L133.59186740740543,104.13684284756278L133.73783681703233,103.51938639106987L133.8988018756536,102.95583170326813L134.06218868210203,102.54909482967861L134.22265393896683,101.921833526988L134.38465451786723,101.55919357589192L134.53913827629188,101.26027019384321L134.69509031212178,101.06425290315713L134.85496286252797,100.82902618183869L135.01169724534233,100.58890201450066L135.1731640212809,100.46639618490116L186.5186553560123,159.79450520321822L186.5822543712782,128.81265447968775L186.6459929032273,124.06420230567988L186.70955025504438,121.75121420223786L186.77289705479598,120.29549814371086L186.83611231936803,119.45213205832704L186.8994045256349,118.78411843042471L186.96280767480206,118.29424442440535L187.02651587703744,117.871172776592L187.08999852198065,117.32006078701073L187.15331690757938,116.94987558371372L187.21707267957632,116.72720105636012L187.28047965986522,116.35700589890456L187.34992959617213,116.25402017427331L187.41604422174782,116.04527151476805L187.48377797514712,115.90331525931026L187.55480792990988,115.6361157806445L187.61869459856612,115.62776424159887L187.68228148194652,115.4913823149439L187.74637982007866,115.38282226150989L187.81018603517845,115.22696004652096L187.87388753295082,115.19077668009584L187.9387785940221,115.22417288211955L188.0023234946935,115.15458335951212L188.06647147777815,115.04046888559247L188.13041226102894,114.96253777809795L188.19449000688175,114.9736665273864L188.25840604747128,114.85397772466399L188.322130531974,114.89851263013469L188.38594265338648,114.83171027192861L188.45002167627987,114.82058152264023L188.51427693077312,114.815017147996L188.57802871201827,114.78996253085927L188.64204579844358,114.75377916443415L188.7060379825776,114.71480863360762L188.7699666339429,114.737076086343L188.8339064594132,114.6841995959852L188.8981406427369,114.7092442589634L188.96233172594108,114.65358060420431L189.0270029764028,114.63131315146893L189.0911806506809,114.62574877682471L189.155131011736,114.62296161242335L189.22035011260596,114.62574877682471L189.28436320827947,114.63966469051451L189.3485370514358,114.58121387135401L189.41262980251543,114.60069415968798L189.476515034501,114.57286233230843L189.54050482418396,114.60348132408939L189.60468329661242,114.58677824599823L189.6685699652687,114.56729795766421L213.39439990665153,173.51937868159993L214.5443018371175,136.73973824941532L215.75888906549162,130.0568247601495L217.08529061469733,126.7418211919333L218.21907262156958,124.86303348559298L219.35509615391746,123.59102142359308L220.48069903514386,122.63910523893384L221.5335343882702,121.89037333913564L222.64755068032687,121.20566658730075L223.7575109318758,120.74640161890375L224.82797311647866,120.24817607383875L225.9240383683819,119.8223272157826L227.0526897050995,119.63304889045276L228.17035849284107,119.28513113989112L229.31647735022304,118.9539065132621L230.53151058501916,118.78968280506894L231.7528517617534,118.56979544211669L232.94807857606548,118.38610139974816L235.00178394709334,136.54768271384265L236.12861853395788,120.61837123129436L237.28965721604976,117.35067977879169L238.34243254826896,115.5303428916119L239.68512227116457,114.6647093534927L241.81124957118595,163.40733719603972L243.23436922528344,133.5861612708323L244.49799385409574,128.27545840379622L245.66250496915094,125.86227174012436L246.82998121279965,124.49006111789458L247.98627600840217,123.30990603123752L249.088202238041,122.49715893763465L250.19787164359815,121.7345111241467L251.38376600499183,121.28916206943944L252.61092011080984,120.76032748675209L253.8874653573063,120.41796415667608L255.0315837306218,120.00880842255253L256.27699249299076,119.77500514591048L257.55650717809266,119.471612346661L258.77421549364084,119.248947773466L260.0125500897245,118.984525505043L261.2275183550813,118.90102006874577L262.31085805724877,118.74237068935543L263.3969350958965,118.62824626127724L264.5801982748081,118.46680971748549L265.87155208385406,118.4417650545073L267.1012878868318,118.26084822238158L268.25074971718834,118.21073898810806L282.97072491960256,170.74991277416228L283.02414687923743,137.087655999977L283.07739915210533,129.0909926618005L283.13038101163073,125.99586650237794L283.18372746624135,123.99739994747381L283.2367420499316,122.55560975679518L283.2903574812141,121.35875159204693L283.3433771730666,120.66290613676506L283.39670239687763,120.00045688350696L283.4536494673996,119.43265176999307L283.50722387375345,119.09586276871983L283.5606170999753,118.71175169757447L283.6137341661719,118.3972301490366L283.6668086111393,118.09941167858989L283.71999926679933,117.91292051766135L283.7732287125669,117.65406262388257L283.82662784510137,117.52603223627318L283.879928166621,117.19202044524275L283.9331938484151,117.12522804119521L283.9864007863425,117.06120289323195L326.2056523630603,248.42134115678206L326.335114746168,248.31353139805077L326.4444155318808,248.5291521597832L326.5560303151221,248.289029236715L327.75172548406636,246.27528553693577L328.91835185721,246.22597263534837L327.40856552498497,176.39454779896022L328.1718718344294,169.06756043316827L328.94252591610297,168.4588735903812L337.81540992223427,248.68596748545585L338.0865321819063,229.41242453657145L338.16558402669375,123.35158409319683L338.2396054490119,111.73257258659982L338.3117362127535,108.96871087044065L338.3839835064478,107.12122899282303L338.4561985548675,105.85201404938311L338.5281846937635,104.70039753536452L338.6001420992465,103.79871003488171L338.6719465791201,103.26946733169268L338.7437574441968,102.50498795302673L338.8152792192124,101.88753149653382L338.8869614224507,101.36808368538397L338.95865160719256,101.10345237963094L339.03029102957146,100.74571982871294L339.10206933011335,100.51049310739455L339.1789227495446,100.21646717136542L339.25078038623246,99.99595269642288L339.3245184651722,99.7411262368675L339.4033271933595,99.67741962197869L339.47929306958866,99.47159748509489L339.554760580732,99.32948196309985L339.63180076734795,99.17267410304618L339.7102032370011,99.17267410304618L339.7887848115954,99.05015831928807L339.86845841551457,99.00115399661655L339.9421055053131,98.91295019747122L340.01467253804236,98.91295019747122L340.09754113785897,98.84433618240428L340.17362785405294,98.80513670593052L340.25777333481824,98.77573212149582L340.33543687686654,98.74632753706123L340.41033275272093,98.712025506607L340.48192604200887,98.69732321438971L340.5534111021079,98.68752832235054L340.62493782565576,98.6434214456986L340.696549153142,98.62382170746173L340.76809391488797,98.59931456904667L340.8395433774808,98.59931456904667L340.9108006454666,98.58461227682938L340.9824493263897,98.55520769239473L341.05415547413884,98.56011509257286L341.1256006267197,98.53071050813827L341.1970684467709,98.51600821592098L341.2687166488038,98.50620336972321L341.3401745717905,98.49640847768404L341.41170975573215,98.49640847768404L341.4832505267264,98.47679878528862L341.5548434967543,98.47190133926898L341.6262415584638,98.47680873944716L341.6977548730856,98.47190133926898L537.9991804685137,185.77865162198833L546.9938218334216,143.23768356401487L551.5611801302939,134.12280986800215L553.2266166378819,130.91300184762113L554.8087932923462,129.04102278574703L556.3614586564491,127.8453093492351L556.8166406150863,126.71330252761197L556.8532830596686,126.12525065555374L556.8862377303199,125.38038096928321L556.9200183269654,125.18435372443855L556.9558488929998,124.69431049772334L556.9890444454304,124.42478174595067L557.0248418084096,124.04744945679585L557.0590465421575,123.7926229972405L557.0939202855382,123.670117167641L557.1288682569027,123.45939758473759L557.1648480770548,123.35648153921639L557.1988764195725,123.17026909472804L557.2423674731477,123.10165507966107L557.275074876817,122.93504237340963L559.4166743215986,185.79335391420562" style="fill: none;" fill="none"></path></g></g></g></g></g></g><g transform="translate(50, 378)" clip-path="url(#clip_1)"><clipPath id="clip_1"><rect width="900" height="22"></rect></clipPath><g><g><line x1="17.225914554716997" y1="0" x2="17.225914554716997" y2="5" style="visibility: inherit;" fill="rgb(0, 0, 0)" stroke="rgb(204, 204, 204)" stroke-width="1px"></line><line x1="132.15956662969813" y1="0" x2="132.15956662969813" y2="5" style="visibility: inherit;" fill="rgb(0, 0, 0)" stroke="rgb(204, 204, 204)" stroke-width="1px"></line><line x1="247.09321870467923" y1="0" x2="247.09321870467923" y2="5" style="visibility: inherit;" fill="rgb(0, 0, 0)" stroke="rgb(204, 204, 204)" stroke-width="1px"></line><line x1="362.0268707796604" y1="0" x2="362.0268707796604" y2="5" style="visibility: inherit;" fill="rgb(0, 0, 0)" stroke="rgb(204, 204, 204)" stroke-width="1px"></line><line x1="476.96052285464145" y1="0" x2="476.96052285464145" y2="5" style="visibility: inherit;" fill="rgb(0, 0, 0)" stroke="rgb(204, 204, 204)" stroke-width="1px"></line><line x1="591.8941749296226" y1="0" x2="591.8941749296226" y2="5" style="visibility: inherit;" fill="rgb(0, 0, 0)" stroke="rgb(204, 204, 204)" stroke-width="1px"></line><line x1="706.8278270046037" y1="0" x2="706.8278270046037" y2="5" style="visibility: inherit;" fill="rgb(0, 0, 0)" stroke="rgb(204, 204, 204)" stroke-width="1px"></line><line x1="821.7614790795849" y1="0" x2="821.7614790795849" y2="5" style="visibility: inherit;" fill="rgb(0, 0, 0)" stroke="rgb(204, 204, 204)" stroke-width="1px"></line></g><g transform="translate(0, 8)"><text x="17.225914554716997" y="0" dx="0em" dy="0.95em" style="text-anchor: middle; visibility: inherit; font-family: &quot;Helvetica Neue&quot;, sans-serif; font-size: 12px; font-weight: 200;" fill="rgb(50, 49, 63)" stroke="none" stroke-width="1px">-200</text><text x="132.15956662969813" y="0" dx="0em" dy="0.95em" style="text-anchor: middle; visibility: inherit; font-family: &quot;Helvetica Neue&quot;, sans-serif; font-size: 12px; font-weight: 200;" fill="rgb(50, 49, 63)" stroke="none" stroke-width="1px">0</text><text x="247.09321870467923" y="0" dx="0em" dy="0.95em" style="text-anchor: middle; visibility: inherit; font-family: &quot;Helvetica Neue&quot;, sans-serif; font-size: 12px; font-weight: 200;" fill="rgb(50, 49, 63)" stroke="none" stroke-width="1px">200</text><text x="362.0268707796604" y="0" dx="0em" dy="0.95em" style="text-anchor: middle; visibility: inherit; font-family: &quot;Helvetica Neue&quot;, sans-serif; font-size: 12px; font-weight: 200;" fill="rgb(50, 49, 63)" stroke="none" stroke-width="1px">400</text><text x="476.96052285464145" y="0" dx="0em" dy="0.95em" style="text-anchor: middle; visibility: inherit; font-family: &quot;Helvetica Neue&quot;, sans-serif; font-size: 12px; font-weight: 200;" fill="rgb(50, 49, 63)" stroke="none" stroke-width="1px">600</text><text x="591.8941749296226" y="0" dx="0em" dy="0.95em" style="text-anchor: middle; visibility: inherit; font-family: &quot;Helvetica Neue&quot;, sans-serif; font-size: 12px; font-weight: 200;" fill="rgb(50, 49, 63)" stroke="none" stroke-width="1px">800</text><text x="706.8278270046037" y="0" dx="0em" dy="0.95em" style="text-anchor: middle; visibility: inherit; font-family: &quot;Helvetica Neue&quot;, sans-serif; font-size: 12px; font-weight: 200;" fill="rgb(50, 49, 63)" stroke="none" stroke-width="1px">1000</text><text x="821.7614790795849" y="0" dx="0em" dy="0.95em" style="text-anchor: middle; visibility: inherit; font-family: &quot;Helvetica Neue&quot;, sans-serif; font-size: 12px; font-weight: 200;" fill="rgb(50, 49, 63)" stroke="none" stroke-width="1px">1200</text></g><line x1="0" y1="0" x2="900.5" y2="0" fill="rgb(0, 0, 0)" stroke="rgb(204, 204, 204)" stroke-width="1px"></line></g></g></g></g></svg>