<svg viewBox="0 0 330 200" xmlns="http://www.w3.org/2000/svg"><g><g><g><g><g><line x1="60" y1="178" x2="55" y2="178" style="visibility: inherit;" fill="rgb(0, 0, 0)" stroke="rgb(204, 204, 204)" stroke-width="1px"></line><line x1="60" y1="164.30769230769232" x2="55" y2="164.30769230769232" style="visibility: inherit;" fill="rgb(0, 0, 0)" stroke="rgb(204, 204, 204)" stroke-width="1px"></line><line x1="60" y1="150.6153846153846" x2="55" y2="150.6153846153846" style="visibility: inherit;" fill="rgb(0, 0, 0)" stroke="rgb(204, 204, 204)" stroke-width="1px"></line><line x1="60" y1="136.92307692307693" x2="55" y2="136.92307692307693" style="visibility: inherit;" fill="rgb(0, 0, 0)" stroke="rgb(204, 204, 204)" stroke-width="1px"></line><line x1="60" y1="123.23076923076923" x2="55" y2="123.23076923076923" style="visibility: inherit;" fill="rgb(0, 0, 0)" stroke="rgb(204, 204, 204)" stroke-width="1px"></line><line x1="60" y1="109.53846153846153" x2="55" y2="109.53846153846153" style="visibility: inherit;" fill="rgb(0, 0, 0)" stroke="rgb(204, 204, 204)" stroke-width="1px"></line><line x1="60" y1="95.84615384615384" x2="55" y2="95.84615384615384" style="visibility: inherit;" fill="rgb(0, 0, 0)" stroke="rgb(204, 204, 204)" stroke-width="1px"></line><line x1="60" y1="82.15384615384616" x2="55" y2="82.15384615384616" style="visibility: inherit;" fill="rgb(0, 0, 0)" stroke="rgb(204, 204, 204)" stroke-width="1px"></line><line x1="60" y1="68.46153846153845" x2="55" y2="68.46153846153845" style="visibility: inherit;" fill="rgb(0, 0, 0)" stroke="rgb(204, 204, 204)" stroke-width="1px"></line><line x1="60" y1="54.769230769230774" x2="55" y2="54.769230769230774" style="visibility: inherit;" fill="rgb(0, 0, 0)" stroke="rgb(204, 204, 204)" stroke-width="1px"></line><line x1="60" y1="41.076923076923094" x2="55" y2="41.076923076923094" style="visibility: inherit;" fill="rgb(0, 0, 0)" stroke="rgb(204, 204, 204)" stroke-width="1px"></line><line x1="60" y1="27.384615384615387" x2="55" y2="27.384615384615387" style="visibility: inherit;" fill="rgb(0, 0, 0)" stroke="rgb(204, 204, 204)" stroke-width="1px"></line><line x1="60" y1="13.692307692307708" x2="55" y2="13.692307692307708" style="visibility: inherit;" fill="rgb(0, 0, 0)" stroke="rgb(204, 204, 204)" stroke-width="1px"></line><line x1="60" y1="0" x2="55" y2="0" style="visibility: inherit;" fill="rgb(0, 0, 0)" stroke="rgb(204, 204, 204)" stroke-width="1px"></line></g><g transform="translate(50, 0)"><text x="0" y="178" dx="0em" dy="0.3em" style="text-anchor: end; visibility: hidden; font-family: &quot;Helvetica Neue&quot;, sans-serif; font-size: 12px; font-weight: 200;" fill="rgb(50, 49, 63)" stroke="none" stroke-width="1px">-0.02</text><text x="0" y="164.30769230769232" dx="0em" dy="0.3em" style="text-anchor: end; visibility: inherit; font-family: &quot;Helvetica Neue&quot;, sans-serif; font-size: 12px; font-weight: 200;" fill="rgb(50, 49, 63)" stroke="none" stroke-width="1px">0</text><text x="0" y="150.6153846153846" dx="0em" dy="0.3em" style="text-anchor: end; visibility: hidden; font-family: &quot;Helvetica Neue&quot;, sans-serif; font-size: 12px; font-weight: 200;" fill="rgb(50, 49, 63)" stroke="none" stroke-width="1px">0.02</text><text x="0" y="136.92307692307693" dx="0em" dy="0.3em" style="text-anchor: end; visibility: inherit; font-family: &quot;Helvetica Neue&quot;, sans-serif; font-size: 12px; font-weight: 200;" fill="rgb(50, 49, 63)" stroke="none" stroke-width="1px">0.04</text><text x="0" y="123.23076923076923" dx="0em" dy="0.3em" style="text-anchor: end; visibility: hidden; font-family: &quot;Helvetica Neue&quot;, sans-serif; font-size: 12px; font-weight: 200;" fill="rgb(50, 49, 63)" stroke="none" stroke-width="1px">0.06</text><text x="0" y="109.53846153846153" dx="0em" dy="0.3em" style="text-anchor: end; visibility: inherit; font-family: &quot;Helvetica Neue&quot;, sans-serif; font-size: 12px; font-weight: 200;" fill="rgb(50, 49, 63)" stroke="none" stroke-width="1px">0.08</text><text x="0" y="95.84615384615384" dx="0em" dy="0.3em" style="text-anchor: end; visibility: hidden; font-family: &quot;Helvetica Neue&quot;, sans-serif; font-size: 12px; font-weight: 200;" fill="rgb(50, 49, 63)" stroke="none" stroke-width="1px">0.1</text><text x="0" y="82.15384615384616" dx="0em" dy="0.3em" style="text-anchor: end; visibility: inherit; font-family: &quot;Helvetica Neue&quot;, sans-serif; font-size: 12px; font-weight: 200;" fill="rgb(50, 49, 63)" stroke="none" stroke-width="1px">0.12</text><text x="0" y="68.46153846153845" dx="0em" dy="0.3em" style="text-anchor: end; visibility: hidden; font-family: &quot;Helvetica Neue&quot;, sans-serif; font-size: 12px; font-weight: 200;" fill="rgb(50, 49, 63)" stroke="none" stroke-width="1px">0.14</text><text x="0" y="54.769230769230774" dx="0em" dy="0.3em" style="text-anchor: end; visibility: inherit; font-family: &quot;Helvetica Neue&quot;, sans-serif; font-size: 12px; font-weight: 200;" fill="rgb(50, 49, 63)" stroke="none" stroke-width="1px">0.16</text><text x="0" y="41.076923076923094" dx="0em" dy="0.3em" style="text-anchor: end; visibility: hidden; font-family: &quot;Helvetica Neue&quot;, sans-serif; font-size: 12px; font-weight: 200;" fill="rgb(50, 49, 63)" stroke="none" stroke-width="1px">0.18</text><text x="0" y="27.384615384615387" dx="0em" dy="0.3em" style="text-anchor: end; visibility: inherit; font-family: &quot;Helvetica Neue&quot;, sans-serif; font-size: 12px; font-weight: 200;" fill="rgb(50, 49, 63)" stroke="none" stroke-width="1px">0.2</text><text x="0" y="13.692307692307708" dx="0em" dy="0.3em" style="text-anchor: end; visibility: hidden; font-family: &quot;Helvetica Neue&quot;, sans-serif; font-size: 12px; font-weight: 200;" fill="rgb(50, 49, 63)" stroke="none" stroke-width="1px">0.22</text><text x="0" y="0" dx="0em" dy="0.3em" style="text-anchor: end; visibility: hidden; font-family: &quot;Helvetica Neue&quot;, sans-serif; font-size: 12px; font-weight: 200;" fill="rgb(50, 49, 63)" stroke="none" stroke-width="1px">0.24</text></g><line x1="60" y1="0" x2="60" y2="178" fill="rgb(0, 0, 0)" stroke="rgb(204, 204, 204)" stroke-width="1px"></line></g></g><g transform="translate(60, 0)" clip-path="url(#clip_0)"><clipPath id="clip_0"><rect width="270" height="178"></rect></clipPath><g><g><g><line x1="0" y1="0" x2="0" y2="178" fill="rgb(0, 0, 0)" stroke="rgb(60, 60, 60)" stroke-width="1px" opacity="0.25"></line><line x1="30" y1="0" x2="30" y2="178" fill="rgb(0, 0, 0)" stroke="rgb(60, 60, 60)" stroke-width="1px" opacity="0.25"></line><line x1="60" y1="0" x2="60" y2="178" fill="rgb(0, 0, 0)" stroke="rgb(60, 60, 60)" stroke-width="1px" opacity="0.25"></line><line x1="90" y1="0" x2="90" y2="178" fill="rgb(0, 0, 0)" stroke="rgb(60, 60, 60)" stroke-width="1px" opacity="0.25"></line><line x1="120" y1="0" x2="120" y2="178" fill="rgb(0, 0, 0)" stroke="rgb(60, 60, 60)" stroke-width="1px" opacity="0.25"></line><line x1="150" y1="0" x2="150" y2="178" fill="rgb(0, 0, 0)" stroke="rgb(60, 60, 60)" stroke-width="1px" opacity="0.25"></line><line x1="180" y1="0" x2="180" y2="178" fill="rgb(0, 0, 0)" stroke="rgb(60, 60, 60)" stroke-width="1px" opacity="0.25"></line><line x1="210" y1="0" x2="210" y2="178" fill="rgb(0, 0, 0)" stroke="rgb(60, 60, 60)" stroke-width="1px" opacity="0.25"></line><line x1="240" y1="0" x2="240" y2="178" fill="rgb(0, 0, 0)" stroke="rgb(60, 60, 60)" stroke-width="1px" opacity="0.25"></line><line x1="270" y1="0" x2="270" y2="178" fill="rgb(0, 0, 0)" stroke="rgb(60, 60, 60)" stroke-width="1px" opacity="0.25"></line></g><g><line x1="0" y1="178" x2="270" y2="178" fill="rgb(0, 0, 0)" stroke="rgb(60, 60, 60)" stroke-width="1px" opacity="0.25"></line><line x1="0" y1="164.30769230769232" x2="270" y2="164.30769230769232" fill="rgb(0, 0, 0)" stroke="rgb(60, 60, 60)" stroke-width="1px" opacity="0.25"></line><line x1="0" y1="150.6153846153846" x2="270" y2="150.6153846153846" fill="rgb(0, 0, 0)" stroke="rgb(60, 60, 60)" stroke-width="1px" opacity="0.25"></line><line x1="0" y1="136.92307692307693" x2="270" y2="136.92307692307693" fill="rgb(0, 0, 0)" stroke="rgb(60, 60, 60)" stroke-width="1px" opacity="0.25"></line><line x1="0" y1="123.23076923076923" x2="270" y2="123.23076923076923" fill="rgb(0, 0, 0)" stroke="rgb(60, 60, 60)" stroke-width="1px" opacity="0.25"></line><line x1="0" y1="109.53846153846153" x2="270" y2="109.53846153846153" fill="rgb(0, 0, 0)" stroke="rgb(60, 60, 60)" stroke-width="1px" opacity="0.25"></line><line x1="0" y1="95.84615384615384" x2="270" y2="95.84615384615384" fill="rgb(0, 0, 0)" stroke="rgb(60, 60, 60)" stroke-width="1px" opacity="0.25"></line><line x1="0" y1="82.15384615384616" x2="270" y2="82.15384615384616" fill="rgb(0, 0, 0)" stroke="rgb(60, 60, 60)" stroke-width="1px" opacity="0.25"></line><line x1="0" y1="68.46153846153845" x2="270" y2="68.46153846153845" fill="rgb(0, 0, 0)" stroke="rgb(60, 60, 60)" stroke-width="1px" opacity="0.25"></line><line x1="0" y1="54.769230769230774" x2="270" y2="54.769230769230774" fill="rgb(0, 0, 0)" stroke="rgb(60, 60, 60)" stroke-width="1px" opacity="0.25"></line><line x1="0" y1="41.076923076923094" x2="270" y2="41.076923076923094" fill="rgb(0, 0, 0)" stroke="rgb(60, 60, 60)" stroke-width="1px" opacity="0.25"></line><line x1="0" y1="27.384615384615387" x2="270" y2="27.384615384615387" fill="rgb(0, 0, 0)" stroke="rgb(60, 60, 60)" stroke-width="1px" opacity="0.25"></line><line x1="0" y1="13.692307692307708" x2="270" y2="13.692307692307708" fill="rgb(0, 0, 0)" stroke="rgb(60, 60, 60)" stroke-width="1px" opacity="0.25"></line><line x1="0" y1="0" x2="270" y2="0" fill="rgb(0, 0, 0)" stroke="rgb(60, 60, 60)" stroke-width="1px" opacity="0.25"></line></g></g></g><g><g><line x1="0" y1="164.30769230769232" x2="270" y2="164.30769230769232" fill="rgb(0, 0, 0)" stroke="rgb(153, 153, 153)" stroke-width="1.5px"></line></g></g><g><g><line x1="30" y1="0" x2="30" y2="178" fill="rgb(0, 0, 0)" stroke="rgb(153, 153, 153)" stroke-width="1.5px"></line></g></g><g><g><g><g><g><path stroke="rgb(255, 112, 67)" stroke-width="2px" d="M30.085625750000002,-6.670753252047746L30.169194416666667,41.98132359312507L30.252443416666665,83.32769437867107L30.33476316666667,108.78500478938983L30.41278366666667,124.59899366637194L30.4966515,134.68580417543927L30.57872625,141.3918839929741L30.66347541666667,145.90007467830182L30.74771875,149.07566007957405L30.823920666666666,151.379857005627L30.907950916666664,153.06194159241582L30.993245416666667,154.38183264925607L31.077014749999996,155.4633616129258L31.161585583333334,156.31671989152025L31.242232333333334,157.03123466473068L31.323645583333334,157.59371994434932L31.4071055,158.09623130644164L31.488927166666667,158.5391202532893L31.573219333333334,158.92148045256522L58.37763583333333,61.387608749339606L58.410837083333334,53.79617455770884L58.444111166666666,59.09381637824299L58.47729066666667,66.35519877557401L58.510360250000005,73.05965191032467L58.54336116666667,78.58144829106267L58.57640225,82.95765474919905L58.60950125,86.44304781854322L58.6427595,89.21346391918921L58.6759,91.47684431039836L58.708954750000004,93.29695009639036L58.742237833333334,94.82955983734352L58.77533883333333,96.11550051746924L58.8115945,97.18268174153268L58.846109,98.12630744909416L58.88146875,98.92213435799354L58.91854925,99.60121136764478L58.95190066666667,100.19720900196481L58.98509558333333,100.7122299590042L59.01855749999999,101.1560113167198L59.05186691666667,101.54768183886604L59.085121666666666,101.90013680097904L59.11899741666666,102.19501776707746L59.15217041666667,102.47376203806071L59.185658249999996,102.70993036837525L59.21903791666667,102.92438892244104L59.25248908333334,103.11880905553026L59.285855833333336,103.29483423903577L59.31912258333333,103.45019217618588L59.35243508333333,103.59043206882025L59.385886916666664,103.7162595957295L59.419430750000004,103.82322589712489L59.45271175,103.92585129281342L59.48613125,104.00775620736809L59.519537750000005,104.08658570792849L59.55291108333333,104.15803867198207L59.586290250000005,104.2199037226454L59.61982308333334,104.27852152944254L59.65333341666667,104.33100834859721L59.68709441666667,104.37649086523656L59.720597749999996,104.41490008020027L59.753982416666666,104.45553718648833L59.788029416666674,104.4875338977815L59.82144683333334,104.52008169147206L59.85494816666667,104.5450967689142L59.88840716666667,104.57021352519075L59.92175783333333,104.5921635138545L59.95516308333333,104.61193187877855L59.98866683333334,104.63051164791639L60.02201825,104.6462420520386L72.40785799999999,9.936245959830302L73.00815316666667,5.328448181143926L73.64221666666667,18.26056133702579L74.33465175,32.94777268947888L74.92653166666666,45.54534093057305L75.51958175000001,55.53331093865975L76.10719183333333,63.27034414888276L76.65681433333333,69.21460195598745L77.23837575,73.85168838447362L77.81781974999998,77.48852119413631L78.37664416666667,80.3709807058385L78.94883441666667,82.7242596203673L79.53803591666667,84.6547214696483L80.12150408333333,86.2370776030916L80.71982433333334,87.56656688000365L81.35412066666667,88.69108795848848L81.99171000000001,89.64529898095853L82.61566658333332,90.44751993338578L83.68778358333333,64.47705550091271L84.27603666666667,72.97429802521306L84.88214566666667,82.64947534366529L85.43173683333332,90.99226163622647L86.132675,97.35763461422913L87.24259916666666,78.55928053645718L87.985525,88.50916618862956L88.645188,100.21938105540538L89.25310975000002,109.48290785483297L89.86257941666666,116.25120795154255L90.46621191666667,121.09759725606801L91.04146183333333,124.58509493845825L91.620754,127.11352984983904L92.23983866666667,128.97345312761774L92.88046258333333,130.3878609961077L93.54687066666665,131.4741042280906L94.14414658333334,132.340704290781L94.79430016666667,133.0272885168184L95.46225841666666,133.60284459801665L96.09795125,134.07483882755406L96.74441183333333,134.4777415397785L97.37867424999999,134.82284439545083L97.94422125,135.11690810883766L98.51119725,135.36937961502323L99.12890833333331,135.59569201231227L99.80304708333333,135.7886510567862L100.44501875,135.96564198962074L101.04508416666667,136.1160470681034L108.72950466666667,101.5604967689347L108.75739308333334,101.30237312502958L108.78519291666666,107.35899470495941L108.81285158333334,113.58979928411928L108.84070058333333,118.79615143947076L108.86837633333332,122.90413721577917L108.89636575,126.07906976722558L108.92404416666665,128.51145730842876L108.95188208333335,130.4004613791917L108.98161075,131.86652254808493L109.00957874999999,133.021637188348L109.03745216666667,133.93723575291207L109.06518141666666,134.6656884519977L109.09288841666665,135.2741279872261L109.12065608333333,135.77498268914238L109.148444,136.18907972611657L109.1763205,136.53339898663745L109.20414541666666,136.83462841373859L109.23195225,137.0841939833569L109.25972841666668,137.29897033722813L131.29987975,79.39671153938356L131.36746441666668,44.65598467703171L131.42452383333332,23.811858687172304L131.48279125,11.305782994573377L132.10699233333332,3.8578381195565896L132.71601833333332,-0.5993153447659836L131.927849,28.012468058642185L132.32632566666666,51.312292073510875L132.72863816666666,65.83788855472237L137.36064133333332,36.52012775989101L137.50217808333335,23.144688240598015L137.54344633333332,56.755496972103984L137.58208850000003,89.45954547079256L137.61974366666666,111.8653892399137L137.65745966666665,126.66367750959415L137.69515883333335,136.48562338707936L137.73273849999998,143.11972031999332L137.77030316666668,147.64527967990045L137.807788,150.7785180377125L137.84527616666668,153.02005090483368L137.88261341666666,154.7137315004782L137.92003441666668,156.02015242604708L137.95745958333333,157.00653383005942L137.99485825000002,157.78546318551702L138.03232941666667,158.44023080179574L138.07244999999998,159.01162040285112L138.10996258333336,159.47583989801268L138.14845683333334,159.88615527395072L138.18959816666666,160.22810849547048L138.22925541666666,160.54938494064285L138.2686525,160.81614109514877L138.30887058333334,161.02775451348535L138.34979983333332,161.22429710482498L138.39082258333335,161.40918585456987L138.43241541666666,161.5604041888134L138.47086216666668,161.69747439203175L138.50874508333334,161.80882635861414L138.55200583333334,161.91234091752864L138.59172616666666,162.00893776217598L138.63565350000002,162.09471241031403L138.676197,162.1673617674186L138.71529566666666,162.23304082864783L138.75267025,162.29325257030146L138.78998833333333,162.3470539527931L138.82732816666666,162.39318480840726L138.86471216666666,162.4363128256423L138.90206141666667,162.47314834752837L138.93936091666666,162.5085192815359L138.97656008333334,162.54002265954426L139.01396358333332,162.56763605706044L139.05139708333334,162.59262784593056L139.08869433333334,162.61521179910267L139.12600341666666,162.63593731366782L139.16340666666667,162.653969519327L139.20071058333335,162.6705661160496L139.2380548333333,162.68579490350743L139.27540199999999,162.69884377449603L139.31277641666668,162.71166759164313L139.35004908333335,162.72251767205748L139.38738191666667,162.73272145166453L241.8646400833333,109.0650557155187L246.5602055,98.63268454795652L248.9445506666667,100.30326007101739L249.81397566666666,104.90167716916683L250.63993566666664,109.55197501232608L251.45048958333334,113.51220376154781L251.68811291666668,116.69047572208964L251.70724175,119.16225156092449L251.72444541666664,121.10268277193467L251.74208025000001,122.60179866206174L251.76078525,123.78988881022647L251.77811466666668,124.73117020379667L251.79680233333335,125.49861453609518L251.8146585,126.13083160990894L251.83286408333333,126.65086590829603L251.85110833333334,127.09106710121287L251.86989125,127.46131060873009L251.88765541666666,127.77808642277762L251.9103595,128.05315848523168L251.9274340833333,128.29512661756883L253.04543533333333,89.47463832580289" style="fill: none;" fill="none"></path></g></g></g></g><g opacity="0.2"><g><g><g><path stroke="rgb(255, 112, 67)" stroke-width="2px" d="M30.085625750000002,-6.199823544575622L30.169194416666667,88.68731736449095L30.252443416666665,131.9510264224731L30.33476316666667,142.02206926162427L30.41278366666667,146.47543331923393L30.4966515,149.11010459237374L30.57872625,151.16941274530612L30.66347541666667,152.54878026820145L30.74771875,153.79103430503835L30.823920666666666,154.81525349817596L30.907950916666664,155.57591464255864L30.993245416666667,156.35735956120948L31.077014749999996,157.0835362306008L31.161585583333334,157.59575421878924L31.242232333333334,158.10250289336994L31.323645583333334,158.43720983885802L31.4071055,158.8498707619997L31.488927166666667,159.20338620388736L31.573219333333334,159.49498580224238L58.37763583333333,-84.9078498161756L58.410837083333334,42.40927306963849L58.444111166666666,67.04017451634775L58.47729066666667,77.24718635357345L58.510360250000005,83.11628396006732L58.54336116666667,86.86411931423041L58.57640225,89.52195323889073L58.60950125,91.67113207166013L58.6427595,93.36908551821342L58.6759,94.87191364627618L58.708954750000004,96.02710817181148L58.742237833333334,97.12847414383522L58.77533883333333,98.04441138414236L58.8115945,98.78345350118784L58.846109,99.54174596988238L58.88146875,100.11587470082137L58.91854925,100.61982687161519L58.95190066666667,101.09120544791222L58.98509558333333,101.48476139169473L59.01855749999999,101.82168335181017L59.05186691666667,102.13518762130003L59.085121666666666,102.42881924372453L59.11899741666666,102.63733921601222L59.15217041666667,102.89187844441487L59.185658249999996,103.06418286378567L59.21903791666667,103.24607675350629L59.25248908333334,103.41043925514587L59.285855833333336,103.55887201428413L59.31912258333333,103.68322908190581L59.35243508333333,103.80079190776898L59.385886916666664,103.90500088609181L59.419430750000004,103.9836753492172L59.45271175,104.0797893863458L59.48613125,104.13061357919986L59.519537750000005,104.204829958769L59.55291108333333,104.26521811806239L59.586290250000005,104.31270129864032L59.61982308333334,104.36644823963826L59.65333341666667,104.4097385773292L59.68709441666667,104.44471464019556L59.720597749999996,104.47251390264584L59.753982416666666,104.51649284592041L59.788029416666674,104.53552896472124L59.82144683333334,104.56890338200789L59.85494816666667,104.58261938507741L59.88840716666667,104.6078886596056L59.92175783333333,104.62508849685008L59.95516308333333,104.64158442616463L59.98866683333334,104.65838130162312L60.02201825,104.66983765822191L72.40785799999999,-132.12874817848206L73.00815316666667,-1.5832484868856795L73.64221666666667,37.65873107084863L74.33465175,54.978589718158446L74.92653166666666,64.44169329221432L75.51958175000001,70.51526595078982L76.10719183333333,74.87589396421727L76.65681433333333,78.13098866664447L77.23837575,80.80731802720291L77.81781974999998,82.94377040863039L78.37664416666667,84.69466997339177L78.94883441666667,86.25417799216052L79.53803591666667,87.55041424356975L80.12150408333333,88.61061180325656L80.71982433333334,89.56080079537173L81.35412066666667,90.37786957621576L81.99171000000001,91.07661551466356L82.61566658333332,91.65085136202667L83.68778358333333,25.521358852203093L84.27603666666667,85.72016181166356L84.88214566666667,97.16224132134364L85.43173683333332,103.50644107506825L86.132675,106.9056940812331L87.24259916666666,50.361749419799224L87.985525,103.43399466688817L88.645188,117.7847033555691L89.25310975000002,123.37819805397437L89.86257941666666,126.40365809660692L90.46621191666667,128.36718121285622L91.04146183333333,129.81634146204362L91.620754,130.90618221691022L92.23983866666667,131.76333804428577L92.88046258333333,132.50947279884264L93.54687066666665,133.10346907606493L94.14414658333334,133.6406043848166L94.79430016666667,134.0571648558745L95.46225841666666,134.466178719814L96.09795125,134.78283017186018L96.74441183333333,135.0820956081152L97.37867424999999,135.34049867895934L97.94422125,135.55800367891788L98.51119725,135.7480868743016L99.12890833333331,135.93516060824578L99.80304708333333,136.07808962349708L100.44501875,136.23112838887252L101.04508416666667,136.3416546858274L108.72950466666667,49.72717132018164L108.75739308333334,100.9151876591719L108.78519291666666,116.44392707485419L108.81285158333334,122.9360061528591L108.84070058333333,126.60567967249797L108.86837633333332,129.06611588024174L108.89636575,130.8414685943952L108.92404416666665,132.16003862023354L108.95188208333335,133.23396748533617L108.98161075,134.06561430142477L109.00957874999999,134.7543091487426L109.03745216666667,135.31063359975815L109.06518141666666,135.75836750062612L109.09288841666665,136.18678729006876L109.12065608333333,136.5262647420168L109.148444,136.81022528157786L109.1763205,137.0498778774188L109.20414541666666,137.28647255439023L109.23195225,137.4585423377844L109.25972841666668,137.62113486803494L131.29987975,-7.456676657383241L132.71601833333332,-7.285045541249815L131.927849,70.9301431637544L132.32632566666666,86.26202809581392L132.72863816666666,87.6262832765396L137.36064133333332,-7.456513432356019L137.50217808333335,3.081528961658478L137.54344633333332,107.17171006936293L137.58208850000003,138.5156182188254L137.61974366666666,145.47415489359543L137.65745966666665,148.86110991411485L137.69515883333335,151.21854220330715L137.73273849999998,153.07086571936424L137.77030316666668,154.43361871976117L137.807788,155.4783755744306L137.84527616666668,156.38235020551542L137.88261341666666,157.2542523939449L137.92003441666668,157.97978381440043L137.95745958333333,158.48610593607793L137.99485825000002,158.9538572187034L138.03232941666667,159.4223822262138L138.07244999999998,159.86870480443423L138.10996258333336,160.172169140755L138.14845683333334,160.50162833785782L138.18959816666666,160.74103832775012L138.22925541666666,161.03129960840138L138.2686525,161.21627532690763L138.30887058333334,161.34517464099022L138.34979983333332,161.51911099183445L138.39082258333335,161.68651897918718L138.43241541666666,161.7872316901787L138.47086216666668,161.9030796968593L138.50874508333334,161.9758543084877L138.55200583333334,162.0676127559004L138.59172616666666,162.15383302914694L138.63565350000002,162.2233743825211L138.676197,162.27633580307548L138.71529566666666,162.33155942049163L138.75267025,162.38357018278197L138.78998833333333,162.4277560265305L138.82732816666666,162.46238109182852L138.86471216666666,162.50100485149486L138.90206141666667,162.52840163035748L138.93936091666666,162.56157568254724L138.97656008333334,162.5872777265568L139.01396358333332,162.60905615333468L139.05139708333334,162.63011552923575L139.08869433333334,162.64908772886085L139.12600341666666,162.66702558551557L139.16340666666667,162.68101782781574L139.20071058333335,162.69546101113352L139.2380548333333,162.70863808469417L139.27540199999999,162.71841708097892L139.31277641666668,162.73090331736378L139.35004908333335,162.73879279267902L139.38738191666667,162.74802712107507L241.8646400833333,28.563557111299986L246.5602055,82.98412779661327L248.9445506666667,102.80912335560872L249.81397566666666,111.79930281639099L250.63993566666664,116.52742177706499L251.45048958333334,119.45254688538037L251.68811291666668,121.45788366290239L251.70724175,122.86991531917683L251.72444541666664,124.01332958844992L251.74208025000001,124.85047249725231L251.76078525,125.57202403247356L251.77811466666668,126.14309229415197L251.79680233333335,126.64978103454297L251.8146585,127.07915722062954L251.83286408333333,127.4309173558767L251.85110833333334,127.7513688905881L251.86989125,128.01667587000588L251.88765541666666,128.25325014384893L251.9103595,128.46576657891273L251.9274340833333,128.65807881607458L253.04543533333333,31.24390588815396" style="fill: none;" fill="none"></path></g></g></g></g></g></g><g transform="translate(60, 178)" clip-path="url(#clip_1)"><clipPath id="clip_1"><rect width="270" height="22"></rect></clipPath><g><g><line x1="0" y1="0" x2="0" y2="5" style="visibility: inherit;" fill="rgb(0, 0, 0)" stroke="rgb(204, 204, 204)" stroke-width="1px"></line><line x1="30" y1="0" x2="30" y2="5" style="visibility: inherit;" fill="rgb(0, 0, 0)" stroke="rgb(204, 204, 204)" stroke-width="1px"></line><line x1="60" y1="0" x2="60" y2="5" style="visibility: inherit;" fill="rgb(0, 0, 0)" stroke="rgb(204, 204, 204)" stroke-width="1px"></line><line x1="90" y1="0" x2="90" y2="5" style="visibility: inherit;" fill="rgb(0, 0, 0)" stroke="rgb(204, 204, 204)" stroke-width="1px"></line><line x1="120" y1="0" x2="120" y2="5" style="visibility: inherit;" fill="rgb(0, 0, 0)" stroke="rgb(204, 204, 204)" stroke-width="1px"></line><line x1="150" y1="0" x2="150" y2="5" style="visibility: inherit;" fill="rgb(0, 0, 0)" stroke="rgb(204, 204, 204)" stroke-width="1px"></line><line x1="180" y1="0" x2="180" y2="5" style="visibility: inherit;" fill="rgb(0, 0, 0)" stroke="rgb(204, 204, 204)" stroke-width="1px"></line><line x1="210" y1="0" x2="210" y2="5" style="visibility: inherit;" fill="rgb(0, 0, 0)" stroke="rgb(204, 204, 204)" stroke-width="1px"></line><line x1="240" y1="0" x2="240" y2="5" style="visibility: inherit;" fill="rgb(0, 0, 0)" stroke="rgb(204, 204, 204)" stroke-width="1px"></line><line x1="270" y1="0" x2="270" y2="5" style="visibility: inherit;" fill="rgb(0, 0, 0)" stroke="rgb(204, 204, 204)" stroke-width="1px"></line></g><g transform="translate(0, 8)"><text x="0" y="0" dx="0em" dy="0.95em" style="text-anchor: middle; visibility: hidden; font-family: &quot;Helvetica Neue&quot;, sans-serif; font-size: 12px; font-weight: 200;" fill="rgb(50, 49, 63)" stroke="none" stroke-width="1px">-100</text><text x="30" y="0" dx="0em" dy="0.95em" style="text-anchor: middle; visibility: inherit; font-family: &quot;Helvetica Neue&quot;, sans-serif; font-size: 12px; font-weight: 200;" fill="rgb(50, 49, 63)" stroke="none" stroke-width="1px">0</text><text x="60" y="0" dx="0em" dy="0.95em" style="text-anchor: middle; visibility: inherit; font-family: &quot;Helvetica Neue&quot;, sans-serif; font-size: 12px; font-weight: 200;" fill="rgb(50, 49, 63)" stroke="none" stroke-width="1px">100</text><text x="90" y="0" dx="0em" dy="0.95em" style="text-anchor: middle; visibility: inherit; font-family: &quot;Helvetica Neue&quot;, sans-serif; font-size: 12px; font-weight: 200;" fill="rgb(50, 49, 63)" stroke="none" stroke-width="1px">200</text><text x="120" y="0" dx="0em" dy="0.95em" style="text-anchor: middle; visibility: inherit; font-family: &quot;Helvetica Neue&quot;, sans-serif; font-size: 12px; font-weight: 200;" fill="rgb(50, 49, 63)" stroke="none" stroke-width="1px">300</text><text x="150" y="0" dx="0em" dy="0.95em" style="text-anchor: middle; visibility: inherit; font-family: &quot;Helvetica Neue&quot;, sans-serif; font-size: 12px; font-weight: 200;" fill="rgb(50, 49, 63)" stroke="none" stroke-width="1px">400</text><text x="180" y="0" dx="0em" dy="0.95em" style="text-anchor: middle; visibility: inherit; font-family: &quot;Helvetica Neue&quot;, sans-serif; font-size: 12px; font-weight: 200;" fill="rgb(50, 49, 63)" stroke="none" stroke-width="1px">500</text><text x="210" y="0" dx="0em" dy="0.95em" style="text-anchor: middle; visibility: inherit; font-family: &quot;Helvetica Neue&quot;, sans-serif; font-size: 12px; font-weight: 200;" fill="rgb(50, 49, 63)" stroke="none" stroke-width="1px">600</text><text x="240" y="0" dx="0em" dy="0.95em" style="text-anchor: middle; visibility: inherit; font-family: &quot;Helvetica Neue&quot;, sans-serif; font-size: 12px; font-weight: 200;" fill="rgb(50, 49, 63)" stroke="none" stroke-width="1px">700</text><text x="270" y="0" dx="0em" dy="0.95em" style="text-anchor: middle; visibility: hidden; font-family: &quot;Helvetica Neue&quot;, sans-serif; font-size: 12px; font-weight: 200;" fill="rgb(50, 49, 63)" stroke="none" stroke-width="1px">800</text></g><line x1="0" y1="0" x2="270" y2="0" fill="rgb(0, 0, 0)" stroke="rgb(204, 204, 204)" stroke-width="1px"></line></g></g></g></g></svg>